<svg xmlns="http://www.w3.org/2000/svg" width="32" height="28.45" viewBox="0 0 32 28.45"><defs><style>.a{fill:#3c45ff;}</style></defs><g transform="translate(-34 -35.767)"><path class="a" d="M49.878,35.773a1.037,1.037,0,0,0-.278.078L34.667,41.9a1.067,1.067,0,0,0-.667.989v2.489a1.067,1.067,0,0,0,1.067,1.066h.355v2.134a1.067,1.067,0,0,0,1.067,1.066H37.2v5.689h-.711A1.067,1.067,0,0,0,35.422,56.4v2.133h-.355a1.028,1.028,0,0,0-.111,0A1.067,1.067,0,0,0,34,59.6v3.556a1.067,1.067,0,0,0,1.067,1.066H64.933A1.067,1.067,0,0,0,66,63.151V59.6a1.067,1.067,0,0,0-1.067-1.067h-.355V56.4a1.067,1.067,0,0,0-1.067-1.067H62.8V49.639h.711a1.067,1.067,0,0,0,1.067-1.066V46.439h.355A1.067,1.067,0,0,0,66,45.373V42.884a1.067,1.067,0,0,0-.667-.989L50.4,35.851A1.049,1.049,0,0,0,49.878,35.773ZM50,37.995l13.867,5.611v.7H36.133v-.7ZM37.556,46.439h4.977v1.067h-.711a1.067,1.067,0,0,0-1.066,1.067V56.4a1.067,1.067,0,0,0,1.066,1.067h.711v1.066H37.556V57.462h.711A1.067,1.067,0,0,0,39.333,56.4V48.573a1.067,1.067,0,0,0-1.066-1.067h-.711Zm7.111,0h.711v2.134a1.066,1.066,0,0,0,1.066,1.066h.712v5.689h-.712A1.067,1.067,0,0,0,45.378,56.4v2.133h-.711V56.4A1.067,1.067,0,0,0,43.6,55.328h-.711V49.639H43.6a1.067,1.067,0,0,0,1.067-1.066Zm2.844,0h4.978v1.067h-.711a1.067,1.067,0,0,0-1.067,1.067V56.4a1.067,1.067,0,0,0,1.067,1.067h.711v1.066H47.511V57.462h.711A1.067,1.067,0,0,0,49.289,56.4V48.573a1.067,1.067,0,0,0-1.067-1.067h-.711Zm7.111,0h.711v2.134A1.067,1.067,0,0,0,56.4,49.639h1.778a1.067,1.067,0,1,0,.03-2.133h-.741V46.439h4.977v1.067h-.711a1.067,1.067,0,0,0-1.066,1.067V56.4a1.067,1.067,0,0,0,1.066,1.067h.711v1.066H57.467V57.462h.711A1.067,1.067,0,0,0,59.244,56.4V52.128A1.066,1.066,0,0,0,58.2,51.044a.931.931,0,0,0-.14.007,1.066,1.066,0,0,0-.945,1.077v3.2H56.4A1.067,1.067,0,0,0,55.333,56.4v2.133h-.711V56.4a1.067,1.067,0,0,0-1.066-1.067h-.712V49.639h.712a1.066,1.066,0,0,0,1.066-1.066ZM36.133,60.662H63.867v1.422H36.133Z"/></g></svg>