<svg xmlns="http://www.w3.org/2000/svg" width="71.108" height="80" viewBox="0 0 71.108 80"><defs><style>.a{fill:#00aefc;}</style></defs><g transform="translate(-14.446 -9.998)"><path class="a" d="M16.835,10a2.666,2.666,0,0,0-2.389,2.666V78.443a2.666,2.666,0,0,0,2.667,2.666H43.778a2.667,2.667,0,1,0,.075-5.333H19.779V15.335H62.444V55.277a17.894,17.894,0,0,0-10.055,8.056H26a2.577,2.577,0,0,0-.278,0A2.67,2.67,0,0,0,26,68.666h24.36A17.776,17.776,0,1,0,67.777,54.444V12.668A2.666,2.666,0,0,0,65.11,10h-48A2.578,2.578,0,0,0,16.835,10Zm8.888,13.332A2.67,2.67,0,0,0,26,28.667H56.222a2.667,2.667,0,1,0,.075-5.333H26A2.578,2.578,0,0,0,25.723,23.334Zm0,13.333A2.67,2.67,0,0,0,26,42H56.222a2.667,2.667,0,0,0,.075-5.333H26A2.577,2.577,0,0,0,25.723,36.667Zm0,13.333A2.67,2.67,0,0,0,26,55.333H56.222A2.667,2.667,0,0,0,56.3,50H26A2.577,2.577,0,0,0,25.723,50Zm42.054,9.777A12.444,12.444,0,1,1,55.333,72.221,12.4,12.4,0,0,1,67.777,59.777Zm5.166,5.305a2.675,2.675,0,0,0-1.805.889l-7,7.722L62.555,72.11a2.667,2.667,0,0,0-4.018,3.508,2.741,2.741,0,0,0,.24.242l3.556,3.555a2.666,2.666,0,0,0,3.771.01q.047-.045.09-.093l8.888-9.778a2.667,2.667,0,0,0-2.139-4.472Z"/></g></svg>