<svg xmlns="http://www.w3.org/2000/svg" width="70.906" height="80" viewBox="0 0 70.906 80"><defs><style>.a{fill:#3c45ff;}</style></defs><g transform="translate(-14.547 -9.998)"><path class="a" d="M16.99,10a2.728,2.728,0,0,0-2.443,2.727V80a2.728,2.728,0,0,0,2.727,2.728h30a2.728,2.728,0,1,0,.077-5.455H20V15.456H47.273V29.092A2.727,2.727,0,0,0,50,31.819H63.636V58.238a16.29,16.29,0,1,0,5.454-.966V29.092a2.727,2.727,0,0,0-.795-1.932L51.932,10.8A2.727,2.727,0,0,0,50,10H17.274A2.69,2.69,0,0,0,16.99,10Zm35.737,9.289L59.8,26.365H52.727ZM69.09,62.726A10.909,10.909,0,1,1,58.181,73.635,10.829,10.829,0,0,1,69.09,62.726ZM69.062,65.4a2.727,2.727,0,0,0-2.7,2.755v2.756H63.636a2.692,2.692,0,0,0-.284,0,2.731,2.731,0,1,0,.284,5.454h2.727v2.727a2.727,2.727,0,1,0,5.454.078q0-.039,0-.078V76.362h2.727a2.727,2.727,0,1,0,.077-5.454h-2.8V68.181a2.728,2.728,0,0,0-2.67-2.784Z"/></g></svg>