<svg xmlns="http://www.w3.org/2000/svg" width="33.391" height="33.391" viewBox="0 0 33.391 33.391"><defs><style>.a{fill:#00aefc;}</style></defs><g transform="translate(-34.692 -33.305)"><path class="a" d="M51.388,66.7A1.391,1.391,0,0,1,50,65.305V34.7a1.391,1.391,0,0,1,2.782,0V65.305A1.391,1.391,0,0,1,51.388,66.7Zm-4.174-4.174H38.173a3.484,3.484,0,0,1-3.481-3.481V40.958a3.484,3.484,0,0,1,3.48-3.479h9.042a1.391,1.391,0,0,1,0,2.782H38.172a.7.7,0,0,0-.7.7V59.041a.7.7,0,0,0,.7.7h9.041a1.392,1.392,0,0,1,0,2.783Z"/><circle class="a" cx="1.391" cy="1.391" r="1.391" transform="translate(54.17 37.478)"/><circle class="a" cx="1.391" cy="1.391" r="1.391" transform="translate(58.344 37.478)"/><circle class="a" cx="1.391" cy="1.391" r="1.391" transform="translate(62.518 37.478)"/><circle class="a" cx="1.391" cy="1.391" r="1.391" transform="translate(65.301 40.261)"/><circle class="a" cx="1.391" cy="1.391" r="1.391" transform="translate(65.301 44.435)"/><circle class="a" cx="1.391" cy="1.391" r="1.391" transform="translate(65.301 48.609)"/><circle class="a" cx="1.391" cy="1.391" r="1.391" transform="translate(65.301 52.783)"/><circle class="a" cx="1.391" cy="1.391" r="1.391" transform="translate(65.301 57.072)"/><circle class="a" cx="1.391" cy="1.391" r="1.391" transform="translate(62.518 59.739)"/><circle class="a" cx="1.391" cy="1.391" r="1.391" transform="translate(58.344 59.739)"/><circle class="a" cx="1.391" cy="1.391" r="1.391" transform="translate(54.17 59.739)"/></g></svg>