<svg xmlns="http://www.w3.org/2000/svg" width="33" height="22.818" viewBox="0 0 33 22.818"><defs><style>.a{fill:#0fd579;}</style></defs><g transform="translate(-33.5 -40.674)"><path class="a" d="M38.864,55.72V44.084a.957.957,0,0,1,.954-.955H60.181a.958.958,0,0,1,.956.954v1.409h2.454V44.083a3.413,3.413,0,0,0-3.409-3.409H39.818a3.413,3.413,0,0,0-3.409,3.409V55.72a3.4,3.4,0,0,0,1,2.409H33.5v.5a3.413,3.413,0,0,0,3.409,3.409H52.863V56.674H39.819A.957.957,0,0,1,38.864,55.72Z"/><path class="a" d="M63.091,47.947H58.728a3.414,3.414,0,0,0-3.41,3.409v8.727a3.413,3.413,0,0,0,3.41,3.409h4.363A3.413,3.413,0,0,0,66.5,60.083V51.356A3.413,3.413,0,0,0,63.091,47.947Zm.955,3.409v8.726a.96.96,0,0,1-.955.956H58.729a.96.96,0,0,1-.957-.955V51.357a.96.96,0,0,1,.956-.956H63.09A.96.96,0,0,1,64.046,51.356Z"/></g></svg>