<svg xmlns="http://www.w3.org/2000/svg" width="112" height="47.964" viewBox="0 0 112 47.964"><defs><style>.a{fill:#fff;}</style></defs><path class="a" d="M251.915,24.2V2h-.962V14.137a6.053,6.053,0,0,0-2.5-2.6,7,7,0,0,0-3.539-.978,6.8,6.8,0,0,0-4.968,2.06,6.93,6.93,0,0,0,0,9.856,6.8,6.8,0,0,0,4.968,2.057,6.915,6.915,0,0,0,3.478-.967,6.55,6.55,0,0,0,2.575-2.59V24.2Zm-2.71-2.328a5.906,5.906,0,0,1-4.327,1.82,5.768,5.768,0,0,1-4.277-1.82,6.112,6.112,0,0,1,.023-8.654,5.768,5.768,0,0,1,4.275-1.836,5.841,5.841,0,0,1,4.307,1.85,5.987,5.987,0,0,1,1.807,4.35A5.883,5.883,0,0,1,249.205,21.874Z" transform="translate(-184.163 -1.548)"/><path class="a" d="M319.387,53.862h.266a6.513,6.513,0,0,0,4.885-2.1,6.9,6.9,0,0,0,2.012-4.928,6.678,6.678,0,0,0-2.057-4.885,7.057,7.057,0,0,0-9.962,0,6.63,6.63,0,0,0-2.062,4.867,6.877,6.877,0,0,0,2.033,4.93A6.549,6.549,0,0,0,319.387,53.862Zm-4.16-11.3a5.845,5.845,0,0,1,4.307-1.85,5.766,5.766,0,0,1,4.277,1.836,6.142,6.142,0,0,1,.016,8.654,5.763,5.763,0,0,1-4.277,1.82,6.217,6.217,0,0,1-6.143-6.111A6,6,0,0,1,315.227,42.565Z" transform="translate(-241.901 -30.88)"/><path class="a" d="M383.106,54.642l4.768-7.254,4.795,7.254h1.1l-5.357-8.083,3.428-5.24h-.942l-2.961,4.5-2.961-4.5h-1.1l3.523,5.33-5.24,7.993Z" transform="translate(-295.853 -31.988)"/><path class="a" d="M452.131,58.114a5.26,5.26,0,0,1-6.617.741,6.477,6.477,0,0,1-2.175-2.258l-.059,1.479a6.014,6.014,0,0,0,5.061,2.457h.116a6.263,6.263,0,0,0,6.219-6.306V41.32h-.946v7.758a4.882,4.882,0,0,1-1.5,3.55q-.073.077-.15.15a5.037,5.037,0,0,1-8.421-3.7V41.32h-.946v7.744a5.646,5.646,0,0,0,1.746,4.158,5.759,5.759,0,0,0,4.2,1.732,5.188,5.188,0,0,0,5.063-2.9V54.31A5.165,5.165,0,0,1,452.131,58.114Z" transform="translate(-342.734 -31.988)"/><path class="a" d="M244.223,153.944h-.069a6.391,6.391,0,0,0-4.663,1.883,6.11,6.11,0,0,0-1.9,4.476,6.3,6.3,0,0,0,1.872,4.515,6.042,6.042,0,0,0,4.477,1.926h.346a6.071,6.071,0,0,0,4.588-2.089l.014-.016v-1.61l-.1.16a6.067,6.067,0,0,1-2.09,1.971,5.281,5.281,0,0,1-6.481-.917,5.511,5.511,0,0,1-.96-6.53,5.486,5.486,0,0,1,7.442-2.188,6.191,6.191,0,0,1,2.09,1.944l.1.155v-1.579l-.014-.016A6.221,6.221,0,0,0,244.223,153.944Z" transform="translate(-183.932 -119.177)"/><path class="a" d="M302.8,127.172a4.878,4.878,0,0,0-4.594,2.466V119.43h-.973v20.247h.973v-7.1a4.328,4.328,0,0,1,1.382-3.188,4.466,4.466,0,0,1,3.195-1.354h.017a4.219,4.219,0,0,1,3.132,1.339,4.457,4.457,0,0,1,1.3,3.2v7.1h.973v-7.2a5.354,5.354,0,0,0-5.407-5.3Z" transform="translate(-230.103 -92.458)"/><path class="a" d="M367.31,156.867a5.03,5.03,0,0,0-2.106-2.208,6.53,6.53,0,0,0-3.321-.911,6.274,6.274,0,0,0-4.557,1.875l-.094.094a6.329,6.329,0,0,0,.094,8.939,6.411,6.411,0,0,0,7.815.989,5.681,5.681,0,0,0,2.174-2.234v2.833h.973V154.034h-.978Zm-1.551-.614a5.542,5.542,0,0,1,.012,7.785A5.187,5.187,0,0,1,362,165.675h-.066a5.559,5.559,0,0,1-5.522-5.509,5.406,5.406,0,0,1,1.638-3.9,5.264,5.264,0,0,1,3.834-1.663h.088A5.2,5.2,0,0,1,365.759,156.254Z" transform="translate(-275.16 -119.025)"/><rect class="a" width="0.973" height="12.182" transform="translate(96.59 35.037)"/><path class="a" d="M426.978,135.61c-.548,0-.838.271-.838.783a.773.773,0,0,0,.2.57.875.875,0,0,0,.642.212c.547,0,.836-.27.836-.781S427.532,135.61,426.978,135.61Z" transform="translate(-329.9 -104.984)"/><path class="a" d="M456.756,155.322a5.194,5.194,0,0,0-3.832-1.576,4.885,4.885,0,0,0-4.621,2.561v-2.274h-.973v12.209h.973l0-7.1a4.3,4.3,0,0,1,1.4-3.188,4.516,4.516,0,0,1,3.215-1.354h.07a4.143,4.143,0,0,1,3.062,1.355,4.5,4.5,0,0,1,1.287,3.188v7.107h.973v-7.1A5.286,5.286,0,0,0,456.756,155.322Z" transform="translate(-346.305 -119.023)"/><path class="a" d="M45.789,13.447H42.512a2.177,2.177,0,0,0-2.175,2.175v1.186h-5.82V15.621a2.177,2.177,0,0,0-2.175-2.175H31.157V7.627h1.186a2.177,2.177,0,0,0,2.175-2.175V2.175A2.177,2.177,0,0,0,32.343,0H29.066a2.177,2.177,0,0,0-2.175,2.175V5.452a2.177,2.177,0,0,0,2.175,2.175h1.188v5.82H29.066a2.177,2.177,0,0,0-2.175,2.175v1.186H21.073V15.621A2.177,2.177,0,0,0,18.9,13.447H15.621a2.177,2.177,0,0,0-2.175,2.175v1.186H7.627V15.621a2.177,2.177,0,0,0-2.175-2.175H4.264V7.627H5.452A2.177,2.177,0,0,0,7.627,5.452V2.175A2.177,2.177,0,0,0,5.452,0H2.175A2.177,2.177,0,0,0,0,2.175V5.452A2.177,2.177,0,0,0,2.175,7.627H3.361v5.82H2.175A2.177,2.177,0,0,0,0,15.621V18.9a2.177,2.177,0,0,0,2.175,2.175H3.361v5.818H2.175A2.177,2.177,0,0,0,0,29.066v3.277a2.177,2.177,0,0,0,2.175,2.175H5.452a2.177,2.177,0,0,0,2.175-2.175V31.157h5.82v1.186a2.177,2.177,0,0,0,2.175,2.175h1.186v5.82H15.621a2.177,2.177,0,0,0-2.175,2.175v3.277a2.177,2.177,0,0,0,2.175,2.175H18.9a2.177,2.177,0,0,0,2.175-2.175V42.512A2.177,2.177,0,0,0,18.9,40.337H17.71v-5.82H18.9a2.177,2.177,0,0,0,2.175-2.175V31.157h5.818v1.186a2.177,2.177,0,0,0,2.175,2.175h3.277a2.177,2.177,0,0,0,2.175-2.175V31.157h5.82v1.186a2.177,2.177,0,0,0,2.175,2.175H43.7v5.82H42.512a2.177,2.177,0,0,0-2.175,2.175v3.277a2.177,2.177,0,0,0,2.175,2.175h3.277a2.177,2.177,0,0,0,2.175-2.175V42.512a2.177,2.177,0,0,0-2.175-2.175H44.6v-5.82h1.186a2.177,2.177,0,0,0,2.175-2.175V29.066a2.177,2.177,0,0,0-2.175-2.175H44.6V21.073h1.186A2.177,2.177,0,0,0,47.964,18.9V15.621A2.177,2.177,0,0,0,45.789,13.447Zm-18-7.995V2.175A1.273,1.273,0,0,1,29.066.9h3.277a1.273,1.273,0,0,1,1.271,1.271V5.452a1.273,1.273,0,0,1-1.271,1.271H29.066A1.273,1.273,0,0,1,27.794,5.452ZM.9,5.452V2.175A1.273,1.273,0,0,1,2.175.9H5.452A1.273,1.273,0,0,1,6.723,2.175V5.452A1.273,1.273,0,0,1,5.452,6.723H2.175A1.273,1.273,0,0,1,.9,5.452ZM20.17,42.512v3.277A1.273,1.273,0,0,1,18.9,47.061H15.621a1.273,1.273,0,0,1-1.271-1.271V42.512a1.273,1.273,0,0,1,1.271-1.271H18.9A1.273,1.273,0,0,1,20.17,42.512Zm26.891,0v3.277a1.273,1.273,0,0,1-1.271,1.271H42.512a1.273,1.273,0,0,1-1.271-1.271V42.512a1.273,1.273,0,0,1,1.271-1.271h3.277A1.273,1.273,0,0,1,47.061,42.512ZM27.794,15.621a1.273,1.273,0,0,1,1.271-1.271h3.277a1.273,1.273,0,0,1,1.271,1.271V18.9a1.273,1.273,0,0,1-1.271,1.271H29.066A1.273,1.273,0,0,1,27.794,18.9Zm-13.444,0a1.273,1.273,0,0,1,1.271-1.271H18.9a1.273,1.273,0,0,1,1.271,1.271V18.9A1.273,1.273,0,0,1,18.9,20.17H15.621A1.273,1.273,0,0,1,14.35,18.9ZM.9,18.9V15.621A1.273,1.273,0,0,1,2.175,14.35H5.452a1.273,1.273,0,0,1,1.271,1.271V18.9A1.273,1.273,0,0,1,5.452,20.17H2.175A1.273,1.273,0,0,1,.9,18.9Zm5.82,13.444a1.273,1.273,0,0,1-1.271,1.271H2.175A1.273,1.273,0,0,1,.9,32.343V29.066a1.273,1.273,0,0,1,1.271-1.271H5.452a1.273,1.273,0,0,1,1.271,1.271Zm6.723-3.277v1.188H7.627V29.066a2.177,2.177,0,0,0-2.175-2.175H4.264V21.073H5.452A2.177,2.177,0,0,0,7.627,18.9V17.71h5.82V18.9a2.177,2.177,0,0,0,2.175,2.175h1.186v5.818H15.621A2.177,2.177,0,0,0,13.447,29.066Zm6.723,3.277A1.273,1.273,0,0,1,18.9,33.614H15.621a1.273,1.273,0,0,1-1.271-1.271V29.066a1.273,1.273,0,0,1,1.271-1.271H18.9a1.273,1.273,0,0,1,1.271,1.271Zm6.721-3.277v1.188H21.073V29.066A2.177,2.177,0,0,0,18.9,26.891H17.71V21.073H18.9A2.177,2.177,0,0,0,21.073,18.9V17.71h5.818V18.9a2.177,2.177,0,0,0,2.175,2.175h1.188v5.818H29.066A2.177,2.177,0,0,0,26.891,29.066Zm6.723,3.277a1.273,1.273,0,0,1-1.271,1.271H29.066a1.273,1.273,0,0,1-1.271-1.271V29.066a1.273,1.273,0,0,1,1.271-1.271h3.277a1.273,1.273,0,0,1,1.271,1.271Zm13.447-3.277v3.277a1.273,1.273,0,0,1-1.271,1.271H42.512a1.273,1.273,0,0,1-1.271-1.271V29.066a1.273,1.273,0,0,1,1.271-1.271h3.277A1.273,1.273,0,0,1,47.061,29.066ZM43.7,26.891H42.512a2.177,2.177,0,0,0-2.175,2.175v1.188h-5.82V29.066a2.177,2.177,0,0,0-2.175-2.175H31.157V21.073h1.186A2.177,2.177,0,0,0,34.518,18.9V17.71h5.82V18.9a2.177,2.177,0,0,0,2.175,2.175H43.7ZM47.061,18.9a1.273,1.273,0,0,1-1.271,1.271H42.512A1.273,1.273,0,0,1,41.241,18.9V15.621a1.273,1.273,0,0,1,1.271-1.271h3.277a1.273,1.273,0,0,1,1.271,1.271Z"/></svg>