<svg xmlns="http://www.w3.org/2000/svg" width="21.334" height="32" viewBox="0 0 21.334 32"><defs><style>.a{fill:#3c45ff;}</style></defs><g transform="translate(-39.333 -34)"><path class="a" d="M50,34c-5.836,0-10.667,4.424-10.667,9.956a10.28,10.28,0,0,0,2.911,7.011c1.339,1.614,2.423,2.823,2.423,5.433v3.911a2.51,2.51,0,0,0,1.777,2.378v.822A2.507,2.507,0,0,0,48.933,66h2.134a2.507,2.507,0,0,0,2.489-2.489v-.822a2.51,2.51,0,0,0,1.777-2.378V56.4c0-2.61,1.084-3.819,2.423-5.433a10.28,10.28,0,0,0,2.911-7.011C60.667,38.424,55.836,34,50,34Zm0,2.133c4.768,0,8.533,3.536,8.533,7.823,0,2.767-1.094,4.041-2.422,5.644a10.49,10.49,0,0,0-2.855,5.733H50.189L47.3,45.8l2.444.611a1.056,1.056,0,0,0,.512,0l2.466-.622-1.966,6.755a1.067,1.067,0,1,0,2.013.707c.012-.035.022-.071.031-.107l2.489-8.533a1.066,1.066,0,0,0-1.278-1.333l-4.011,1-4.011-1a1.053,1.053,0,0,0-.311-.034,1.067,1.067,0,0,0-1.012,1.119,1.034,1.034,0,0,0,.045.259l3.245,10.711H46.744A10.49,10.49,0,0,0,43.889,49.6c-1.328-1.6-2.422-2.877-2.422-5.644C41.467,39.669,45.232,36.133,50,36.133ZM46.8,57.467h6.4v2.844a.334.334,0,0,1-.356.356H47.156a.334.334,0,0,1-.356-.356ZM48.578,62.8h2.844v.711a.334.334,0,0,1-.355.356H48.933a.334.334,0,0,1-.355-.356Z"/></g></svg>