<svg xmlns="http://www.w3.org/2000/svg" width="32.746" height="32.755" viewBox="0 0 32.746 32.755"><defs><style>.a{fill:#00aefc;}</style></defs><g transform="translate(-33.639 -33.644)"><path class="a" d="M66.023,64.345,55.338,53.7a12.233,12.233,0,1,0-9.431,4.484,12.012,12.012,0,0,0,5.562-1.343,1.195,1.195,0,0,0-.817-2.246.936.936,0,0,0-.226.113,9.765,9.765,0,0,1-4.519,1.085,9.862,9.862,0,1,1,6.965-2.864,1.2,1.2,0,0,0,0,1.7L64.337,66.038a1.195,1.195,0,1,0,1.686-1.693Z"/><path class="a" d="M39.791,48.373v2.46a1.2,1.2,0,0,0,1.195,1.195h9.843a1.2,1.2,0,0,0,1.194-1.195v-2.46a2.839,2.839,0,0,0-2.835-2.836H42.626A2.839,2.839,0,0,0,39.791,48.373Zm2.835-.446h6.562a.426.426,0,0,1,.445.446v1.265H42.181V48.373A.426.426,0,0,1,42.626,47.927Z"/><path class="a" d="M49.153,41.4a3.246,3.246,0,1,0-3.246,3.246A3.249,3.249,0,0,0,49.153,41.4Zm-2.39,0a.856.856,0,1,1-.856-.855A.847.847,0,0,1,46.763,41.4Z"/></g></svg>