<svg xmlns="http://www.w3.org/2000/svg" width="32" height="31.96" viewBox="0 0 32 31.96"><defs><style>.a{fill:#3c45ff;}</style></defs><g transform="translate(-33.941 -34.01)"><path class="a" d="M49.952,34.01c-.042,0-.083.006-.125.012a1.2,1.2,0,0,0-1.059,1.209V48.8H35.2c-.041,0-.083,0-.125,0a1.2,1.2,0,0,0,.125,2.394H48.768V64.757a1.2,1.2,0,0,0,2.394.033V35.231A1.2,1.2,0,0,0,49.99,34.01ZM53.83,48.8a1.2,1.2,0,1,0,.125,2.394H64.727a1.2,1.2,0,1,0,.034-2.394H53.955C53.913,48.795,53.871,48.795,53.83,48.8Z"/></g></svg>