<svg xmlns="http://www.w3.org/2000/svg" width="32" height="24.73" viewBox="0 0 32 24.73"><defs><style>.a{fill:#3c45ff;}</style></defs><g transform="translate(-34 -37.632)"><path class="a" d="M51.023,37.634a1.106,1.106,0,0,0-.443.125l-6.694,3.512h-8.8A1.09,1.09,0,0,0,34,42.362V53.634a1.09,1.09,0,0,0,1.091,1.091h2.2a3.269,3.269,0,0,0,1.08,2.08,4.26,4.26,0,0,0,.5.375c.221.154.506.353.841.579.669.454,1.529,1.03,2.386,1.6s1.716,1.142,2.387,1.591,1.23.84,1.216.829a2.918,2.918,0,0,0,1.75.58,2.882,2.882,0,0,0,1.488-.421,2.8,2.8,0,0,0,1.421.421A18.288,18.288,0,0,0,55.92,60.93a28.06,28.06,0,0,0,5.512-2.614l.011-.011c.006,0,.017-.007.023-.011v-.012a2.7,2.7,0,0,0,1.261-2.1,2.744,2.744,0,0,0-.318-1.261c-.041-.076-.092-.126-.136-.194h2.636A1.09,1.09,0,0,0,66,53.634V42.362a1.09,1.09,0,0,0-1.091-1.091H59.091l-7.534-3.534A1.094,1.094,0,0,0,51.023,37.634Zm.1,2.307,7.25,3.4a1.093,1.093,0,0,0,.466.114h4.977v9.091H62.364a6.371,6.371,0,0,0-1.3.068,3,3,0,0,0-.409.2l-9.125-10.1a1.091,1.091,0,0,0-1.239-.261l-5.09,2.2a.739.739,0,0,1-.3.068A.711.711,0,0,1,44.182,44a.724.724,0,0,1,.284-.568l.091-.057.193-.1ZM36.182,43.453h5.943A2.728,2.728,0,0,0,42,44a2.9,2.9,0,0,0,4.08,2.659l4.363-1.9L60.08,55.43l.022.023a4.138,4.138,0,0,1,.4.511c.046.084.045.081.045.216,0,.182.111.044-.295.307l-.023.011a28.072,28.072,0,0,1-5.068,2.386,21.777,21.777,0,0,1-4.8,1.3c-.039,0-.072,0-.1,0a2.83,2.83,0,0,0,.1-.727,2.905,2.905,0,0,0-.864-2.069c-.149-.147-.24-.216-.443-.386s-.471-.38-.784-.636c-.627-.513-1.434-1.172-2.25-1.83s-1.637-1.319-2.3-1.841-1.061-.849-1.352-1.045a3.284,3.284,0,0,0-4.557.9H36.182Zm4.363,9.818a1.055,1.055,0,0,1,.6.182s.576.427,1.227.943,1.472,1.175,2.284,1.829,1.619,1.311,2.239,1.819c.31.253.568.474.761.636a2.489,2.489,0,0,0,.307.25.721.721,0,0,1,.216.523.712.712,0,0,1-.727.727.7.7,0,0,1-.432-.148c-.236-.176-.645-.436-1.318-.886s-1.531-1.031-2.387-1.6S41.6,56.4,40.943,55.953c-.33-.224-.612-.413-.818-.557l-.307-.216-.011-.011-.012-.012a1.094,1.094,0,0,1,.75-1.886Z"/></g></svg>