<svg xmlns="http://www.w3.org/2000/svg" width="42.666" height="48" viewBox="0 0 42.666 48"><defs><style>.a{fill:#3c45ff;}</style></defs><g transform="translate(-28.667 -25.999)"><path class="a" d="M40.784,26a1.6,1.6,0,0,0-1.45,1.6V52.666a10.666,10.666,0,1,0,9.283,15.9H69.733a1.6,1.6,0,0,0,1.6-1.6V36.133A1.6,1.6,0,0,0,70.866,35l-8.533-8.533A1.6,1.6,0,0,0,61.2,26H40.934Q40.859,26,40.784,26Zm1.75,3.2h16v8a1.6,1.6,0,0,0,1.6,1.6h8V65.365H49.8a10.628,10.628,0,0,0-7.266-12.2Zm19.2,1.183L66.949,35.6H61.733Zm-22.4,25.483a7.466,7.466,0,1,1-7.467,7.466A7.442,7.442,0,0,1,39.334,55.866Zm.4,2.65a1.6,1.6,0,0,0-.9,2.816l.466.4H35.067a1.533,1.533,0,0,0-.166,0,1.6,1.6,0,1,0,.166,3.2h4.217l-.45.383a1.6,1.6,0,1,0,1.792,2.652,1.62,1.62,0,0,0,.274-.235l3.734-3.2a1.6,1.6,0,0,0,.159-2.257,1.715,1.715,0,0,0-.159-.16l-3.734-3.2A1.6,1.6,0,0,0,39.734,58.516Z"/></g></svg>