<svg xmlns="http://www.w3.org/2000/svg" width="16.742" height="15.998" viewBox="0 0 16.742 15.998"><defs><style>.a{fill:#c8cfd7;}</style></defs><g transform="translate(0 -9.558)"><path class="a" d="M16.742,19.367v6.19H13.154V19.781c0-1.451-.519-2.441-1.818-2.441a1.964,1.964,0,0,0-1.841,1.313,2.455,2.455,0,0,0-.119.875v6.028H5.786s.048-9.781,0-10.795H9.375v1.53l-.024.035h.024v-.035a3.564,3.564,0,0,1,3.235-1.784C14.972,14.508,16.742,16.051,16.742,19.367ZM2.031,9.558a1.871,1.871,0,1,0-.048,3.731h.024a1.871,1.871,0,1,0,.024-3.731Zm-1.818,16H3.8V14.762H.213Z" transform="translate(0)"/></g></svg>