<svg xmlns="http://www.w3.org/2000/svg" width="36.377" height="47.999" viewBox="0 0 36.377 47.999"><defs><style>.a{fill:#0fd579;}</style></defs><path class="a" d="M49.867,26a1.6,1.6,0,0,0-.617.166l-16.531,8a1.6,1.6,0,1,0,1.4,2.867L49.95,29.371,64.881,36.6V55.334c-.036,3.2-2.037,6.078-5.1,8.732a60.722,60.722,0,0,1-9.832,6.466,60.722,60.722,0,0,1-9.832-6.466c-3.062-2.654-5.063-5.536-5.1-8.732v-14.4a1.6,1.6,0,0,0-3.2-.045v14.46c.041,4.5,2.784,8.171,6.2,11.132A66.876,66.876,0,0,0,49.167,73.8a1.6,1.6,0,0,0,1.566,0,66.876,66.876,0,0,0,11.149-7.315c3.415-2.961,6.158-6.635,6.2-11.132V35.6a1.6,1.6,0,0,0-.9-1.433l-16.531-8A1.6,1.6,0,0,0,49.867,26Zm.083,11.731a6.421,6.421,0,0,0-6.4,6.4v2.133H42.484a1.531,1.531,0,0,0-.166,0,1.6,1.6,0,0,0-1.434,1.6v9.6a1.6,1.6,0,0,0,1.6,1.6H57.416a1.6,1.6,0,0,0,1.6-1.6v-9.6a1.6,1.6,0,0,0-1.6-1.6H56.349V44.136A6.421,6.421,0,0,0,49.95,37.736Zm0,3.2a3.158,3.158,0,0,1,3.2,3.2v2.133h-6.4V44.136A3.158,3.158,0,0,1,49.95,40.936Zm-5.866,8.532H55.816v6.4H44.084Z" transform="translate(-31.704 -26.003)"/></svg>