<svg xmlns="http://www.w3.org/2000/svg" width="800" height="800.018" viewBox="0 0 800 800.018"><defs><style>.a{fill:#3c45ff;opacity:0.24;}</style></defs><path class="a" d="M1166.4,1318.286H1510.14c125.789,0,228.127-102.358,228.127-228.129V746.416c0-125.79-102.339-228.148-228.127-228.148H1166.4c-125.806,0-228.13,102.358-228.13,228.148v343.741C938.268,1215.927,1040.592,1318.286,1166.4,1318.286ZM1510.14,613.023c73.533,0,133.352,59.861,133.352,133.392v343.741c0,73.533-59.819,133.373-133.352,133.373H1166.4c-73.552,0-133.374-59.84-133.374-133.373V746.416c0-73.531,59.822-133.392,133.374-133.392Z" transform="translate(-938.268 -518.268)"/></svg>