<svg xmlns="http://www.w3.org/2000/svg" xmlns:xlink="http://www.w3.org/1999/xlink" width="768" height="632" viewBox="0 0 768 632"><defs><style>.a{fill:#1c1c7b;}.b{clip-path:url(#a);}.c{fill:none;stroke:#00aefc;opacity:0.8;}</style><clipPath id="a"><rect class="a" width="768" height="632" transform="translate(0 103)"/></clipPath></defs><g class="b" transform="translate(0 -103)"><path class="c" d="M1166.4,1318.286H1510.14c125.789,0,228.127-102.358,228.127-228.129V746.416c0-125.79-102.339-228.148-228.127-228.148H1166.4c-125.806,0-228.13,102.358-228.13,228.148v343.741C938.268,1215.927,1040.592,1318.286,1166.4,1318.286ZM1510.14,613.023c73.533,0,133.352,59.861,133.352,133.392v343.741c0,73.533-59.819,133.373-133.352,133.373H1166.4c-73.552,0-133.374-59.84-133.374-133.373V746.416c0-73.531,59.822-133.392,133.374-133.392Z" transform="translate(-1348.268 -358.268)"/></g></svg>