<svg xmlns="http://www.w3.org/2000/svg" width="21.818" height="32" viewBox="0 0 21.818 32"><defs><style>.a{fill:#0fd579;}</style></defs><g transform="translate(-39.091 -34)"><path class="a" d="M50,34a6.539,6.539,0,0,0-2.954,12.375c-4.55,1.154-7.955,4.9-7.955,9.443a1.09,1.09,0,0,0,1.091,1.091h16a1.091,1.091,0,0,0,.031-2.182H41.4c.6-3.653,4.143-6.545,8.6-6.545,4.9,0,8.727,3.48,8.727,7.636a1.091,1.091,0,1,0,2.182.031v-.031c0-4.542-3.4-8.289-7.954-9.443A6.539,6.539,0,0,0,50,34Zm0,2.182a4.364,4.364,0,1,1-4.364,4.363A4.347,4.347,0,0,1,50,36.182ZM40.909,58a1.839,1.839,0,0,0-1.818,1.818v4.364A1.839,1.839,0,0,0,40.909,66H59.091a1.839,1.839,0,0,0,1.818-1.818V59.818A1.839,1.839,0,0,0,59.091,58Zm.364,2.182H58.727v3.636H41.273Zm2.068.727a1.092,1.092,0,1,0,.114,2.182h2.181a1.091,1.091,0,1,0,.031-2.182H43.455A1.084,1.084,0,0,0,43.341,60.909Zm5.455,0a1.092,1.092,0,1,0,.113,2.182h2.182a1.091,1.091,0,0,0,.031-2.182H48.909A1.065,1.065,0,0,0,48.8,60.909Zm5.454,0a1.092,1.092,0,1,0,.114,2.182h2.182a1.091,1.091,0,0,0,.03-2.182H54.364A1.084,1.084,0,0,0,54.25,60.909Z"/></g></svg>