<svg xmlns="http://www.w3.org/2000/svg" width="62.242" height="80" viewBox="0 0 62.242 80"><defs><style>.a{fill:#0fd579;}</style></defs><g transform="translate(-18.893 -9.996)"><path class="a" d="M55.084,10.007a2.662,2.662,0,0,0-2.055,1.333L19.257,70a2.664,2.664,0,0,0-.361,1.472l.889,16a2.668,2.668,0,0,0,3.805,2.25L38.7,82.605a2.666,2.666,0,0,0,1.166-1.083L73.636,22.865a2.665,2.665,0,0,0-1-3.636l0,0-16-8.887A2.661,2.661,0,0,0,55.084,10.007Zm1.222,6.276,11.359,6.3-2.888,5L53.418,21.282ZM50.751,25.92l11.359,6.3L36.976,75.884,25.811,69.3ZM24.423,74.69,32.7,79.55l-7.8,3.666Zm24.412,1.083a2.67,2.67,0,1,0,.278,5.332H66.887a2.666,2.666,0,1,0,.076-5.332H49.113A2.575,2.575,0,0,0,48.835,75.773Zm-8,8.887a2.67,2.67,0,1,0,.277,5.332H78.441a2.666,2.666,0,1,0,0-5.332H41.114A1.424,1.424,0,0,0,40.837,84.66Z"/></g></svg>