<svg xmlns="http://www.w3.org/2000/svg" width="30.75" height="29.446" viewBox="0 0 30.75 29.446"><defs><style>.a{fill:#3c45ff;}</style></defs><g transform="translate(-59.318 -30.499)"><path class="a" d="M68.041,35.168c-.037,0-.074,0-.111.005a1.372,1.372,0,0,0-1,.558,9.289,9.289,0,0,0-1.609,5.506,9.248,9.248,0,0,0,1.606,5.482A1.378,1.378,0,0,0,68.85,47a1.379,1.379,0,0,0,.279-1.927,7.49,7.49,0,0,1,0-7.684,1.376,1.376,0,0,0-1.087-2.218Z"/><path class="a" d="M65.694,49.62l-.03-.028a11.528,11.528,0,0,1,0-16.731,1.376,1.376,0,0,0-.965-2.354h-.047a1.364,1.364,0,0,0-.928.415,14.251,14.251,0,0,0,0,20.6,1.376,1.376,0,1,0,2.1-1.782A1.489,1.489,0,0,0,65.694,49.62Z"/><path class="a" d="M75.737,59.454l.252-.444.079-.481V41.237a1.375,1.375,0,0,0-1.346-1.416l-.176.017-.139.013-.137.045-.123.038-.123.07-.108.057-.111.1-.094.076-.088.113-.077.092-.07.135-.057.1c-.007.019-.015.055-.025.091l-.074.428,0,17.335a1.375,1.375,0,0,0,1.345,1.416l.449-.074.124-.038.127-.072.106-.057.112-.095.094-.076C75.693,59.514,75.714,59.483,75.737,59.454Z"/><path class="a" d="M85.664,30.925l0,0a1.369,1.369,0,0,0-.989-.422,1.115,1.115,0,0,0-.129.007,1.375,1.375,0,0,0-1.232,1.5,1.378,1.378,0,0,0,.4.846,11.527,11.527,0,0,1,.007,16.738,1.389,1.389,0,0,0-.147,1.971,1.375,1.375,0,0,0,1.94.117,1.249,1.249,0,0,0,.126-.126,14.254,14.254,0,0,0,.024-20.629Z"/><path class="a" d="M82.461,35.735a1.369,1.369,0,0,0-1.108-.564c-.027,0-.055,0-.082,0a1.375,1.375,0,0,0-1.019,2.205,7.481,7.481,0,0,1,.005,7.689A1.379,1.379,0,0,0,80.536,47a1.377,1.377,0,0,0,1.925-.278,9.25,9.25,0,0,0,1.607-5.482A9.288,9.288,0,0,0,82.461,35.735Z"/></g></svg>